<svg version="1.1" xmlns="http://www.w3.org/2000/svg" fill="white" clip-rule="evenodd" height="1024" width="1024" viewBox="0 0 1024 1024"><path d="M546.709333 558.634667h113.152c18.432 0 26.112-9.728 26.112-26.133334v-99.818666c0-18.453333-9.728-26.133333-26.112-26.133334h-113.152v152.085334z m-56.32-152.085334H378.24c-17.408 0-26.112 8.192-26.112 26.133334v99.818666c0 16.896 7.68 26.133333 26.112 26.133334h112.128v-152.085334z m56.32 320.533334c0 6.656 0 26.112-27.648 26.112-26.133333 0-28.693333-15.36-28.693333-26.112v-117.248h-125.952c-46.08 0-67.584-15.36-67.584-67.605334v-119.808c0-52.736 22.016-67.072 67.584-67.072h125.952v-57.344c0-7.68 1.066667-25.6 26.666667-25.6 20.970667 0 29.674667 7.168 29.674666 25.6v57.344h126.976c46.613333 0 67.626667 15.36 67.626667 67.072v119.808c0 50.688-19.989333 67.605333-67.626667 67.605334h-126.976v117.248z"></path><path d="M515.626667 128C301.866667 128 128 301.888 128 515.626667c0 213.76 173.866667 387.648 387.626667 387.648 213.76 0 387.626667-173.888 387.626666-387.648C903.253333 301.888 729.386667 128 515.626667 128m0 817.941333C278.4 945.941333 85.333333 752.896 85.333333 515.626667S278.378667 85.333333 515.626667 85.333333c237.290667 0 430.293333 193.024 430.293333 430.293334 0 237.269333-193.002667 430.314667-430.293333 430.314666"></path><path d="M546.709333 558.634667h113.152c18.432 0 26.112-9.728 26.112-26.133334v-99.818666c0-18.453333-9.728-26.133333-26.112-26.133334h-113.152v152.085334z m-56.32-152.085334H378.24c-17.408 0-26.112 8.192-26.112 26.133334v99.818666c0 16.896 7.68 26.133333 26.112 26.133334h112.128v-152.085334z m56.32 320.533334c0 6.656 0 26.112-27.648 26.112-26.133333 0-28.693333-15.36-28.693333-26.112v-117.248h-125.952c-46.08 0-67.584-15.36-67.584-67.605334v-119.808c0-52.736 22.016-67.072 67.584-67.072h125.952v-57.344c0-7.68 1.066667-25.6 26.666667-25.6 20.970667 0 29.674667 7.168 29.674666 25.6v57.344h126.976c46.613333 0 67.626667 15.36 67.626667 67.072v119.808c0 50.688-19.989333 67.605333-67.626667 67.605334h-126.976v117.248z"></path><path d="M515.626667 128C301.866667 128 128 301.888 128 515.626667c0 213.76 173.866667 387.648 387.626667 387.648 213.76 0 387.626667-173.888 387.626666-387.648C903.253333 301.888 729.386667 128 515.626667 128m0 817.941333C278.4 945.941333 85.333333 752.896 85.333333 515.626667S278.378667 85.333333 515.626667 85.333333c237.290667 0 430.293333 193.024 430.293333 430.293334 0 237.269333-193.002667 430.314667-430.293333 430.314666"></path></svg>