<svg version="1.1" xmlns="http://www.w3.org/2000/svg" fill="white" clip-rule="evenodd" height="1024" width="1024" viewBox="0 0 1024 1024"><path d="M512.490667 128C300.48 128 128 300.48 128 512.490667c0 212.032 172.48 384.512 384.490667 384.512 212.010667 0 384.490667-172.48 384.490666-384.512C896.981333 300.48 724.501333 128 512.490667 128m0 811.669333C276.970667 939.669333 85.333333 748.032 85.333333 512.490667S276.949333 85.333333 512.490667 85.333333s427.157333 191.616 427.157333 427.157334-191.616 427.178667-427.157333 427.178666"></path><path d="M448.042667 485.077333c6.4 0 23.04 0 23.04 21.76 0 8.96-3.413333 22.208-23.04 22.208H305.066667v87.893334c0 12.8 5.994667 20.053333 20.501333 20.053333h146.368c23.04 0 23.04 19.626667 23.04 22.634667 0 4.693333 0 23.04-23.04 23.04h-161.28c-41.429333 0-58.069333-14.506667-58.069333-57.6V398.016c0-42.24 16.213333-57.6 58.048-57.6h154.048c23.04 0 23.04 18.773333 23.04 22.613333 0 7.253333-2.133333 23.04-23.04 23.04h-139.093334c-14.08 0-20.522667 7.253333-20.522666 20.053334v78.954666h142.976zM775.296 668.16c0 20.48-15.36 23.466667-24.32 23.466667-14.933333 0-25.6-5.973333-25.6-23.466667v-147.242667c0-20.906667-6.826667-56.32-52.48-56.32-52.053333 0-63.146667 46.08-63.146667 62.72v140.842667c0 19.626667-13.653333 23.466667-24.362666 23.466667-15.786667 0-25.6-6.826667-25.6-23.466667V445.397333c0-23.04 17.92-23.893333 24.746666-23.893333 14.506667 0 25.194667 5.973333 25.194667 23.893333v15.786667c12.8-15.36 35.413333-39.68 78.08-39.68 53.781333 0 87.488 31.573333 87.488 91.733333v154.922667z"></path></svg>